<svg xmlns="http://www.w3.org/2000/svg" viewBox="0 0 100 100">
    <title>Disc Golf Bag Icon</title>
    <g transform="translate(10, 0) scale(0.8)">
        <path d="M25,35 Q20,30 20,25 Q20,20 30,20 H70 Q80,20 80,25 Q80,30 75,35 L80,80 Q80,85 75,85 H25 Q20,85 20,80 Z" fill="#26a69a"/>
        <path d="M30,20 Q40,10 50,10 Q60,10 70,20" stroke="#00897b" stroke-width="5" fill="none"/>
        <ellipse cx="40" cy="30" rx="8" ry="3" fill="#ffd54f"/>
        <ellipse cx="50" cy="30" rx="8" ry="3" fill="#ff7043"/>
        <ellipse cx="60" cy="30" rx="8" ry="3" fill="#42a5f5"/>
        <path d="M30,45 H70 L65,75 H35 Z" fill="#00897b"/>
    </g>
</svg> 