<?xml version="1.0" encoding="UTF-8"?>
<svg xmlns="http://www.w3.org/2000/svg" viewBox="0 0 24 24" width="100%" height="100%" preserveAspectRatio="xMidYMid meet">
    <title>Players Icon</title>
    <!-- Back silhouette -->
    <path d="M16 7c0 2.21-1.79 4-4 4S8 9.21 8 7s1.79-4 4-4 4 1.79 4 4zM4 20c0-2.66 5.33-4 8-4s8 1.34 8 4v1H4v-1z" 
          fill="#808080" transform="translate(2,0)"/>
    <!-- Front silhouette -->
    <path d="M16 7c0 2.21-1.79 4-4 4S8 9.21 8 7s1.79-4 4-4 4 1.79 4 4zM4 20c0-2.66 5.33-4 8-4s8 1.34 8 4v1H4v-1z" 
          fill="#000000"/>
</svg> 