<?xml version="1.0" encoding="UTF-8"?>
<svg xmlns="http://www.w3.org/2000/svg" viewBox="0 0 1024 1024">
    <path fill="white" d="M512 320c-106 0-192 86-192 192s86 192 192 192 192-86 192-192-86-192-192-192zm0 320c-71 0-128-57-128-128s57-128 128-128 128 57 128 128-57 128-128 128zm352-224v96l-72 30c-4 12-8 24-14 36l26 70-68 68-70-26c-12 6-24 10-36 14l-30 72h-96l-30-72c-12-4-24-8-36-14l-70 26-68-68 26-70c-6-12-10-24-14-36l-72-30v-96l72-30c4-12 8-24 14-36l-26-70 68-68 70 26c12-6 24-10 36-14l30-72h96l30 72c12 4 24 8 36 14l70-26 68 68-26 70c6 12 10 24 14 36l72 30z"/>
</svg> 