<!--
Generated by DrawGPT.
Free, open source, AI generated images in SVG, PNG, and HTML Canvas format.
https://drawgpt.ai

Created: 2025-03-27T07:22:08+00:00
-->
<svg   viewBox="0 0 1024 1024" xmlns="http://www.w3.org/2000/svg" xmlns:xlink="http://www.w3.org/1999/xlink">
  <title id="svgTitle1" class="title">Lush Grass Texture</title>
  <desc id="svgDesc1" class="description">A fun, grassy mosaic where blades, tufts, and tiny blooms groove in a seamless, colorful dance!</desc>
  <defs>
    <!-- Define a 512x512 seamless grass pattern -->
    <pattern id="grassPattern" class="pattern" patternUnits="userSpaceOnUse" width="512" height="512">
      <!-- Base background -->
      <rect id="backgroundRect1" class="background" x="0" y="0" width="512" height="512" fill="#4CAF50" />
      <!-- Grass blades and tufts -->
      <path id="grassBlade1" class="grass-blade" d="M100,500 C110,450 120,350 110,300 C100,350 90,450 100,500 Z" fill="#3E8E41"/>
      <path id="grassBlade2" class="grass-blade" d="M200,480 C210,430 220,330 210,280 C200,330 190,430 200,480 Z" fill="#388E3C"/>
      <path id="grassBlade3" class="grass-blade" d="M0,300 C20,250 30,150 20,100 C10,150 0,250 0,300 Z" fill="#66BB6A"/>
      <!-- Duplicate on the right edge for horizontal seamless tiling -->
      <path id="grassBlade3Dup" class="grass-blade" d="M512,300 C492,250 482,150 492,100 C502,150 512,250 512,300 Z" fill="#66BB6A"/>
      <!-- Blade touching the top edge -->
      <path id="grassBlade4" class="grass-blade" d="M250,0 C260,30 270,60 260,90 C250,60 240,30 250,0 Z" fill="#43A047"/>
      <path id="grassBlade5" class="grass-blade" d="M400,520 C410,470 420,370 410,320 C400,370 390,470 400,520 Z" fill="#2E7D32"/>
      <path id="grassBlade6" class="grass-blade" d="M150,520 C160,470 170,370 160,320 C150,370 140,470 150,520 Z" fill="#388E3C"/>
      <path id="grassBlade7" class="grass-blade" d="M350,500 C360,450 370,350 360,300 C350,350 340,450 350,500 Z" fill="#43A047"/>
      <!-- A tufty cluster adding texture -->
      <ellipse id="grassTuft1" class="grass-tuft" cx="300" cy="400" rx="10" ry="15" fill="#4CAF50"/>
      <!-- Small flowers to add pops of color -->
      <circle id="flower1" class="flower" cx="120" cy="450" r="5" fill="#F06292"/>
      <circle id="flower2" class="flower" cx="350" cy="460" r="5" fill="#FFEB3B"/>
      <circle id="flower3" class="flower" cx="480" cy="420" r="5" fill="#F06292"/>
    </pattern>
  </defs>
  <!-- Fill the entire canvas with the repeating grass pattern -->
  <rect id="mainRect" class="background" x="0" y="0" width="1024" height="1024" fill="url(#grassPattern)" />
</svg> 