<!--
Generated by DrawGPT.
Free, open source, AI generated images in SVG, PNG, and HTML Canvas format.
https://drawgpt.ai

Created: 2025-03-27T07:23:49+00:00
-->
<svg id="svg-1024beach" class="canvas"   viewBox="0 0 1024 1024" xmlns="http://www.w3.org/2000/svg" xmlns:xlink="http://www.w3.org/1999/xlink">
  <title>Seamless Beach Sand Texture</title>
  <desc>A fun, windy beach scene with sandy ripples that are groovy enough to call a sand dance.</desc>
  
  <!-- Background -->
  <rect id="bg-1" class="background" x="0" y="0" width="1024" height="1024" fill="#f5e6cc" />
  
  <!-- Dune ripples (horizontal dunes) -->
  <ellipse id="dune-1" class="dune" cx="512" cy="256" rx="400" ry="80" fill="#e0c090" opacity="0.5" />
  <ellipse id="dune-2" class="dune" cx="512" cy="768" rx="400" ry="80" fill="#e0c090" opacity="0.5" />
  
  <!-- Dune ripples (vertical dunes) -->
  <ellipse id="dune-3" class="dune" cx="256" cy="512" rx="80" ry="400" fill="#e0c090" opacity="0.5" />
  <ellipse id="dune-4" class="dune" cx="768" cy="512" rx="80" ry="400" fill="#e0c090" opacity="0.5" />
  
  <!-- Wind-swept ripple paths -->
  <path id="ripple-1" class="ripple" d="M0 512 C256 482, 768 542, 1024 512" fill="none" stroke="#d2a679" stroke-width="2" opacity="0.6" />
  <path id="ripple-2" class="ripple" d="M0 600 C256 580, 768 620, 1024 600" fill="none" stroke="#d2a679" stroke-width="2" opacity="0.6" />
  
  <!-- Granular sand texture details (grains) -->
  <circle id="grain-1" class="grain" cx="150" cy="250" r="3" fill="#e0d1b9" />
  <circle id="grain-2" class="grain" cx="400" cy="100" r="2" fill="#e8d7b8" />
  <circle id="grain-3" class="grain" cx="820" cy="300" r="2.5" fill="#e2c6a9" />
  <circle id="grain-4" class="grain" cx="200" cy="800" r="3" fill="#e0d1b9" />
  <circle id="grain-5" class="grain" cx="700" cy="750" r="2.5" fill="#e8d7b8" />
  <circle id="grain-6" class="grain" cx="500" cy="500" r="2" fill="#e2c6a9" />
  <circle id="grain-7" class="grain" cx="350" cy="650" r="3" fill="#e0d1b9" />
  <circle id="grain-8" class="grain" cx="900" cy="450" r="2" fill="#e8d7b8" />
  <circle id="grain-9" class="grain" cx="250" cy="900" r="3" fill="#e2c6a9" />
  <circle id="grain-10" class="grain" cx="600" cy="350" r="3" fill="#e0d1b9" />
  <circle id="grain-11" class="grain" cx="50" cy="50" r="2" fill="#e8d7b8" />
  <circle id="grain-12" class="grain" cx="1020" cy="1020" r="2" fill="#e2c6a9" />
  <circle id="grain-13" class="grain" cx="800" cy="900" r="2.5" fill="#e0d1b9" />
  <circle id="grain-14" class="grain" cx="920" cy="100" r="2" fill="#e8d7b8" />
  <circle id="grain-15" class="grain" cx="480" cy="720" r="2.5" fill="#e2c6a9" />
</svg> 