<!--

Generated by DrawGPT.
Free, open source, AI generated images in SVG, PNG, and HTML Canvas format.
https://drawgpt.ai

Created: 2025-03-29T19:12:36+00:00
-->
<svg xmlns="http://www.w3.org/2000/svg" xmlns:xlink="http://www.w3.org/1999/xlink"   viewBox="0 0 1024 1024">
  <title id="title_1" class="title">Enchanted Forest Skybox</title>
  <desc id="desc_1" class="description">A whimsical fairy tale scene with pastel skies, dancing sparkles, and floating islands—magical enough to make unicorns smile!</desc>
  <defs>
    <!-- Sky gradient from pastel pink to soft lavender -->
    <linearGradient id="skyGradient_1" class="gradient" x1="0" y1="0" x2="0" y2="1">
      <stop offset="0%" stop-color="#ffb6c1" />
      <stop offset="100%" stop-color="#e6e6fa" />
    </linearGradient>
    <!-- Waterfall gradient -->
    <linearGradient id="waterfallGradient_1" class="gradient" x1="0" y1="0" x2="0" y2="1">
      <stop offset="0%" stop-color="#a0e9ff" stop-opacity="0.9" />
      <stop offset="100%" stop-color="#84d0ff" stop-opacity="0.5" />
    </linearGradient>
    <!-- Rainbow mist gradient (used in floating islands) -->
    <radialGradient id="rainbowMistGradient_1" class="gradient" cx="50%" cy="50%" r="50%">
      <stop offset="0%" stop-color="rgba(255,182,193,0.8)" />
      <stop offset="50%" stop-color="rgba(221,160,221,0.6)" />
      <stop offset="100%" stop-color="rgba(173,216,230,0.2)" />
    </radialGradient>
  </defs>
  
  <!-- Sky background -->
  <rect id="bg_rect_1" class="background" x="0" y="0" width="1024" height="1024" fill="url(#skyGradient_1)"/>
  
  <!-- Golden sun rays -->
  <g id="sunRays_1" class="sun-rays">
    <line id="ray_1" class="ray" x1="512" y1="1024" x2="512" y2="600" stroke="#ffd700" stroke-width="4" stroke-linecap="round"/>
    <line id="ray_2" class="ray" x1="512" y1="1024" x2="450" y2="630" stroke="#ffd700" stroke-width="3" stroke-linecap="round"/>
    <line id="ray_3" class="ray" x1="512" y1="1024" x2="574" y2="630" stroke="#ffd700" stroke-width="3" stroke-linecap="round"/>
    <line id="ray_4" class="ray" x1="512" y1="1024" x2="400" y2="660" stroke="#ffd700" stroke-width="2" stroke-linecap="round"/>
    <line id="ray_5" class="ray" x1="512" y1="1024" x2="624" y2="660" stroke="#ffd700" stroke-width="2" stroke-linecap="round"/>
  </g>
  
  <!-- Majestic Mountains with lush emerald forests -->
  <g id="mountains_1" class="mountains">
    <!-- Left mountain -->
    <polygon id="mountain_left_1" class="mountain" points="0,800 300,400 600,800" fill="#2ecc71" stroke="#27ae60" stroke-width="3"/>
    <!-- Right mountain -->
    <polygon id="mountain_right_1" class="mountain" points="424,800 700,300 1024,800" fill="#2ecc71" stroke="#27ae60" stroke-width="3"/>
  </g>
  
  <!-- Floating islands with crystal waterfalls and rainbow mist -->
  <g id="floatingIslands_1" class="floating-islands">
    <!-- Left floating island -->
    <ellipse id="island_left_1" class="island" cx="250" cy="350" rx="80" ry="30" fill="#f0f8ff" stroke="#add8e6" stroke-width="2"/>
    <!-- Waterfall on left island -->
    <path id="waterfall_left_1" class="waterfall" d="M230,350 C230,400 270,400 270,350" fill="none" stroke="url(#waterfallGradient_1)" stroke-width="6" stroke-linecap="round"/>
    <!-- Rainbow mist over left island -->
    <ellipse id="mist_left_1" class="rainbow-mist" cx="250" cy="330" rx="60" ry="20" fill="url(#rainbowMistGradient_1)"/>
    
    <!-- Right floating island -->
    <ellipse id="island_right_1" class="island" cx="780" cy="280" rx="70" ry="25" fill="#f0f8ff" stroke="#add8e6" stroke-width="2"/>
    <!-- Waterfall on right island -->
    <path id="waterfall_right_1" class="waterfall" d="M760,280 C760,330 800,330 800,280" fill="none" stroke="url(#waterfallGradient_1)" stroke-width="6" stroke-linecap="round"/>
    <!-- Rainbow mist over right island -->
    <ellipse id="mist_right_1" class="rainbow-mist" cx="780" cy="260" rx="50" ry="18" fill="url(#rainbowMistGradient_1)"/>
  </g>
  
  <!-- Fluffy cotton-candy clouds -->
  <g id="clouds_1" class="clouds">
    <circle id="cloud_1a" class="cloud" cx="150" cy="150" r="40" fill="white" opacity="0.9" />
    <circle id="cloud_1b" class="cloud" cx="190" cy="150" r="50" fill="white" opacity="0.9" />
    <circle id="cloud_1c" class="cloud" cx="230" cy="150" r="40" fill="white" opacity="0.9" />
    
    <circle id="cloud_2a" class="cloud" cx="700" cy="100" r="35" fill="white" opacity="0.9" />
    <circle id="cloud_2b" class="cloud" cx="740" cy="100" r="45" fill="white" opacity="0.9" />
    <circle id="cloud_2c" class="cloud" cx="780" cy="100" r="35" fill="white" opacity="0.9" />
    
    <circle id="cloud_3a" class="cloud" cx="500" cy="200" r="30" fill="white" opacity="0.9" />
    <circle id="cloud_3b" class="cloud" cx="530" cy="200" r="40" fill="white" opacity="0.9" />
    <circle id="cloud_3c" class="cloud" cx="570" cy="200" r="30" fill="white" opacity="0.9" />
  </g>
  
  <!-- Magical sparkles scattered around the sky -->
  <g id="sparkles_1" class="sparkles">
    <circle id="sparkle_1" class="sparkle" cx="100" cy="300" r="4" fill="#fffacd" />
    <circle id="sparkle_2" class="sparkle" cx="900" cy="250" r="3" fill="#fffacd" />
    <circle id="sparkle_3" class="sparkle" cx="400" cy="100" r="5" fill="#fffacd" />
    <circle id="sparkle_4" class="sparkle" cx="650" cy="180" r="4" fill="#fffacd" />
    <circle id="sparkle_5" class="sparkle" cx="300" cy="500" r="3" fill="#fffacd" />
    <circle id="sparkle_6" class="sparkle" cx="800" cy="400" r="4" fill="#fffacd" />
    <circle id="sparkle_7" class="sparkle" cx="520" cy="350" r="3" fill="#fffacd" />
    <circle id="sparkle_8" class="sparkle" cx="600" cy="450" r="4" fill="#fffacd" />
  </g>
  
  <!-- Tiny fairies dancing in the air -->
  <g id="fairies_1" class="fairies">
    <g id="fairy_1" class="fairy" transform="translate(300,250)">
      <circle id="fairy_body_1" class="fairy-body" cx="0" cy="0" r="5" fill="#ff69b4"/>
      <path id="fairy_wings_1" class="fairy-wings" d="M-8,-5 C-12,-15,12,-15,8,-5" fill="rgba(255,255,255,0.7)"/>
    </g>
    <g id="fairy_2" class="fairy" transform="translate(700,350)">
      <circle id="fairy_body_2" class="fairy-body" cx="0" cy="0" r="5" fill="#ff69b4"/>
      <path id="fairy_wings_2" class="fairy-wings" d="M-8,-5 C-12,-15,12,-15,8,-5" fill="rgba(255,255,255,0.7)"/>
    </g>
    <g id="fairy_3" class="fairy" transform="translate(500,150)">
      <circle id="fairy_body_3" class="fairy-body" cx="0" cy="0" r="5" fill="#ff69b4"/>
      <path id="fairy_wings_3" class="fairy-wings" d="M-8,-5 C-12,-15,12,-15,8,-5" fill="rgba(255,255,255,0.7)"/>
    </g>
  </g>
  
</svg> 