<!--

Generated by DrawGPT.
Free, open source, AI generated images in SVG, PNG, and HTML Canvas format.
https://drawgpt.ai

Created: 2025-03-26T02:01:13+00:00
-->
<svg xmlns="http://www.w3.org/2000/svg" xmlns:xlink="http://www.w3.org/1999/xlink" viewBox="0 0 1024 1024">
  <title>Fairway Grass Normal Map</title>
  <desc>Normal map for fairway grass texture with detailed height variations</desc>
  
  <rect id="base" class="base-layer" x="0" y="0" width="1024" height="1024" fill="rgb(160,160,160)" />
  
  <g id="grassLayer">
    <path id="blade1" class="grass-blade" d="M30 900 Q40 860 50 910 Q40 870 30 900" fill="rgb(128,128,128)" />
    <path id="blade2" class="grass-blade" d="M70 910 Q90 880 110 920 Q100 890 70 910" fill="rgb(128,128,128)" />
    <path id="blade3" class="grass-blade" d="M150 950 Q165 910 180 960 Q170 920 150 950" fill="rgb(128,128,128)" />
    <path id="blade4" class="grass-blade" d="M200 910 Q220 870 240 920 Q220 880 200 910" fill="rgb(128,128,128)" />
    <path id="blade5" class="grass-blade" d="M250 940 Q260 910 270 950 Q260 930 250 940" fill="rgb(128,128,128)" />
    <path id="blade6" class="grass-blade" d="M300 930 Q310 900 320 940 Q310 910 300 930" fill="rgb(128,128,128)" />
    <path id="blade7" class="grass-blade" d="M350 920 Q360 890 370 930 Q360 900 350 920" fill="rgb(128,128,128)" />
    <path id="blade8" class="grass-blade" d="M400 910 Q420 870 440 920 Q420 880 400 910" fill="rgb(128,128,128)" />
    <path id="blade9" class="grass-blade" d="M450 950 Q460 910 470 950 Q460 930 450 950" fill="rgb(128,128,128)" />
    <path id="blade10" class="grass-blade" d="M500 900 Q510 860 520 910 Q510 870 500 900" fill="rgb(128,128,128)" />
    
    <!-- Deeper areas -->
    <g id="deepLayer" opacity="0.9">
      <path id="deep1" class="deep-blade" d="M30 900 Q40 880 50 910 Q40 870 30 900" fill="rgb(110,110,110)" />
      <path id="deep2" class="deep-blade" d="M70 910 Q90 870 110 900 Q100 890 70 910" fill="rgb(110,110,110)" />
      <path id="deep3" class="deep-blade" d="M150 950 Q165 910 180 960 Q170 920 150 950" fill="rgb(110,110,110)" />
    </g>
    
    <!-- Raised areas -->
    <g id="raisedLayer" opacity="0.8">
      <path id="raised1" class="raised-blade" d="M400 900 Q420 870 440 910 Q430 880 400 900" fill="rgb(180,180,180)" />
      <path id="raised2" class="raised-blade" d="M500 920 Q520 890 540 930 Q530 900 500 920" fill="rgb(180,180,180)" />
      <path id="raised3" class="raised-blade" d="M600 910 Q620 880 640 920 Q630 890 600 910" fill="rgb(180,180,180)" />
    </g>
    
    <!-- Additional variations -->
    <g id="variations" opacity="0.85">
      <path d="M700 900 Q720 870 740 910 Q730 880 700 900" fill="rgb(140,140,140)" />
      <path d="M800 920 Q820 890 840 930 Q830 900 800 920" fill="rgb(135,135,135)" />
      <path d="M900 910 Q920 880 940 920 Q930 890 900 910" fill="rgb(145,145,145)" />
    </g>
  </g>
  
  <!-- Fine detail variations -->
  <g id="fineDetail" opacity="0.7">
    <circle cx="100" cy="100" r="2" fill="rgb(170,170,170)" />
    <circle cx="300" cy="300" r="2" fill="rgb(150,150,150)" />
    <circle cx="500" cy="500" r="2" fill="rgb(165,165,165)" />
    <circle cx="700" cy="700" r="2" fill="rgb(155,155,155)" />
    <circle cx="900" cy="900" r="2" fill="rgb(145,145,145)" />
  </g>
</svg> 