<!--

Generated by DrawGPT.
Free, open source, AI generated images in SVG, PNG, and HTML Canvas format.
https://drawgpt.ai

Created: 2025-03-26T02:00:52+00:00
-->
<svg xmlns="http://www.w3.org/2000/svg" xmlns:xlink="http://www.w3.org/1999/xlink" viewBox="0 0 1024 1024">
  <title>Seamless Fairway Grass Texture</title>
  <desc>You can't have a bad day when you're on the green! Grass may not be a great athlete, but it sure knows how to cover ground!</desc>
  
  <rect id="baseLayer" class="base" x="0" y="0" width="1024" height="1024" fill="#90c070" />
  
  <g id="grassLayer">
    <path id="blade1" class="grass-blade" d="M30 900 Q40 860 50 910 Q40 870 30 900" fill="#80b060" />
    <path id="blade2" class="grass-blade" d="M70 910 Q90 880 110 920 Q100 890 70 910" fill="#80b060" />
    <path id="blade3" class="grass-blade" d="M150 950 Q165 910 180 960 Q170 920 150 950" fill="#80b060" />
    <path id="blade4" class="grass-blade" d="M200 910 Q220 870 240 920 Q220 880 200 910" fill="#80b060" />
    <path id="blade5" class="grass-blade" d="M250 940 Q260 910 270 950 Q260 930 250 940" fill="#80b060" />
    <path id="blade6" class="grass-blade" d="M300 930 Q310 900 320 940 Q310 910 300 930" fill="#80b060" />
    <path id="blade7" class="grass-blade" d="M350 920 Q360 890 370 930 Q360 900 350 920" fill="#80b060" />
    <path id="blade8" class="grass-blade" d="M400 910 Q420 870 440 920 Q420 880 400 910" fill="#80b060" />
    <path id="blade9" class="grass-blade" d="M450 950 Q460 910 470 950 Q460 930 450 950" fill="#80b060" />
    <path id="blade10" class="grass-blade" d="M500 900 Q510 860 520 910 Q510 870 500 900" fill="#80b060" />
    <path id="blade11" class="grass-blade" d="M550 920 Q560 880 570 930 Q560 900 550 920" fill="#80b060" />
    <path id="blade12" class="grass-blade" d="M600 910 Q620 870 640 920 Q620 880 600 910" fill="#80b060" />
    <path id="blade13" class="grass-blade" d="M650 940 Q660 910 670 950 Q660 930 650 940" fill="#80b060" />
    <path id="blade14" class="grass-blade" d="M700 930 Q710 900 720 940 Q710 910 700 930" fill="#80b060" />
    <path id="blade15" class="grass-blade" d="M750 920 Q760 890 770 930 Q760 900 750 920" fill="#80b060" />
    <path id="blade16" class="grass-blade" d="M800 910 Q820 870 840 920 Q820 880 800 910" fill="#80b060" />
    <path id="blade17" class="grass-blade" d="M850 950 Q860 910 870 950 Q860 930 850 950" fill="#80b060" />
    <path id="blade18" class="grass-blade" d="M900 900 Q910 860 920 910 Q910 870 900 900" fill="#80b060" />
    <path id="blade19" class="grass-blade" d="M950 920 Q960 880 970 930 Q960 900 950 920" fill="#80b060" />
    <path id="blade20" class="grass-blade" d="M1000 910 Q1020 870 1040 920 Q1020 880 1000 910" fill="#80b060" />
    
    <path id="highlight1" class="grass-highlight" d="M30 900 Q40 880 50 910 Q40 870 30 900" fill="#a0d080" />
    <path id="highlight2" class="grass-highlight" d="M70 910 Q90 870 110 900 Q100 890 70 910" fill="#a0d080" />
    <path id="shadow1" class="grass-shadow" d="M150 950 Q165 910 180 960 Q170 920 150 950" fill="#709050" />
    
    <!-- Add more variations and layers -->
    <g id="layer2" transform="translate(0, 50)">
      <path d="M100 900 Q120 870 140 910 Q130 880 100 900" fill="#80b060" />
      <path d="M200 920 Q220 890 240 930 Q230 900 200 920" fill="#80b060" />
      <path d="M300 910 Q320 880 340 920 Q330 890 300 910" fill="#80b060" />
    </g>
    
    <g id="highlights" opacity="0.7">
      <path d="M400 900 Q420 870 440 910 Q430 880 400 900" fill="#a0d080" />
      <path d="M500 920 Q520 890 540 930 Q530 900 500 920" fill="#a0d080" />
      <path d="M600 910 Q620 880 640 920 Q630 890 600 910" fill="#a0d080" />
    </g>
    
    <g id="shadows" opacity="0.8">
      <path d="M700 900 Q720 870 740 910 Q730 880 700 900" fill="#709050" />
      <path d="M800 920 Q820 890 840 930 Q830 900 800 920" fill="#709050" />
      <path d="M900 910 Q920 880 940 920 Q930 890 900 910" fill="#709050" />
    </g>
  </g>
  
  <g id="textureNoise" class="noise" opacity="0.1">
    <circle id="noise1" cx="100" cy="100" r="2" fill="#FFFFFF" />
    <circle id="noise2" cx="300" cy="300" r="2" fill="#FFFFFF" />
    <circle id="noise3" cx="500" cy="500" r="2" fill="#FFFFFF" />
    <circle id="noise4" cx="700" cy="700" r="2" fill="#FFFFFF" />
    <circle id="noise5" cx="900" cy="900" r="2" fill="#FFFFFF" />
  </g>
</svg> 