<!--
Generated by DrawGPT.
Free, open source, AI generated images in SVG, PNG, and HTML Canvas format.
https://drawgpt.ai

Created: 2025-03-27T07:25:30+00:00
-->
<svg id="svg_fairway" class="fairway_texture" viewBox="0 0 1024 1024" xmlns="http://www.w3.org/2000/svg" xmlns:xlink="http://www.w3.org/1999/xlink">
  <title>Professional Golf Fairway Texture</title>
  <desc>Pristine fairway with professional striping and subtle grass detail patterns</desc>
  
  <defs>
    <!-- Base pattern for the fairway grass -->
    <pattern id="fairwayBase" patternUnits="userSpaceOnUse" width="512" height="512">
      <!-- Background color -->
      <rect width="512" height="512" fill="#2E7D32"/>
      
      <!-- Alternating stripes with gradient transitions -->
      <g opacity="0.9">
        <rect y="0" width="512" height="64" fill="#388E3C"/>
        <rect y="64" width="512" height="64" fill="#2E7D32"/>
        <rect y="128" width="512" height="64" fill="#388E3C"/>
        <rect y="192" width="512" height="64" fill="#2E7D32"/>
        <rect y="256" width="512" height="64" fill="#388E3C"/>
        <rect y="320" width="512" height="64" fill="#2E7D32"/>
        <rect y="384" width="512" height="64" fill="#388E3C"/>
        <rect y="448" width="512" height="64" fill="#2E7D32"/>
      </g>
      
      <!-- Subtle grass detail pattern -->
      <pattern id="grassDetail" width="32" height="32" patternUnits="userSpaceOnUse">
        <path d="M0,16 L32,16" stroke="rgba(255,255,255,0.05)" stroke-width="0.5"/>
        <path d="M16,0 L16,32" stroke="rgba(255,255,255,0.05)" stroke-width="0.5"/>
      </pattern>
      <rect width="512" height="512" fill="url(#grassDetail)" opacity="0.4"/>
    </pattern>
    
    <!-- Mowing direction overlay -->
    <pattern id="mowingPattern" patternUnits="userSpaceOnUse" width="64" height="64">
      <line x1="0" y1="64" x2="64" y2="0" stroke="rgba(255,255,255,0.1)" stroke-width="1"/>
      <line x1="0" y1="32" x2="32" y2="0" stroke="rgba(255,255,255,0.1)" stroke-width="1"/>
      <line x1="32" y1="64" x2="64" y2="32" stroke="rgba(255,255,255,0.1)" stroke-width="1"/>
    </pattern>
  </defs>
  
  <!-- Main fairway surface -->
  <rect width="1024" height="1024" fill="url(#fairwayBase)"/>
  
  <!-- Mowing pattern overlay -->
  <rect width="1024" height="1024" fill="url(#mowingPattern)" opacity="0.3"/>
  
  <!-- Subtle highlight variations -->
  <g opacity="0.1">
    <path d="M0,0 Q512,100 1024,0" fill="none" stroke="#FFFFFF" stroke-width="100"/>
    <path d="M0,1024 Q512,924 1024,1024" fill="none" stroke="#FFFFFF" stroke-width="100"/>
  </g>
</svg> 