<!--
Generated by DrawGPT.
Free, open source, AI generated images in SVG, PNG, and HTML Canvas format.
https://drawgpt.ai

Created: 2025-03-27T07:16:10+00:00
-->
<svg id="svg-grassTexture" class="canvas"   viewBox="0 0 1024 1024" xmlns="http://www.w3.org/2000/svg" xmlns:xlink="http://www.w3.org/1999/xlink">
  <title id="title-grassTexture">Seamless Rough Grass Texture</title>
  <desc id="desc-grassTexture">A whimsical patch of unruly, dark green grass that even cows might chuckle at!</desc>
  <defs id="defs-grassTexture" class="defs">
    <pattern id="pattern-grass" class="pattern" patternUnits="userSpaceOnUse" width="512" height="512">
      <rect id="pattern-bg" class="background" x="0" y="0" width="512" height="512" fill="#2a9240"/>
      <path id="grass1" class="grass" d="M50,450 C55,430 65,420 70,400 C75,380 80,370 85,350 C80,370 75,390 70,410 C65,430 55,440 50,450 Z" fill="#1fde1f"/>
      <path id="grass2" class="grass" d="M120,480 C125,460 135,450 140,430 C145,410 150,400 155,380 C150,400 145,420 140,440 C135,460 125,470 120,480 Z" fill="#256f25"/>
      <path id="grass3" class="grass" d="M200,420 C205,400 215,390 220,370 C225,350 230,340 235,320 C230,340 225,360 220,380 C215,400 205,410 200,420 Z" fill="#1a5a1a"/>
      <path id="grass4" class="grass" d="M300,500 C305,480 315,470 320,450 C325,430 330,420 335,400 C330,420 325,440 320,460 C315,480 305,490 300,500 Z" fill="#2a7f2a"/>
      <path id="grass5" class="grass" d="M400,460 C405,440 415,430 420,410 C425,390 430,380 435,360 C430,380 425,400 420,420 C415,440 405,450 400,460 Z" fill="#1f5e1f"/>
      <path id="grass6" class="grass" d="M80,350 C85,330 95,320 100,300 C105,280 110,270 115,250 C110,270 105,290 100,310 C95,330 85,340 80,350 Z" fill="#155115"/>
      <path id="grass7" class="grass" d="M250,300 C255,280 265,270 270,250 C275,230 280,220 285,200 C280,220 275,240 270,260 C265,280 255,290 250,300 Z" fill="#1d5a1d"/>
      <path id="grass8" class="grass" d="M350,350 C355,330 365,320 370,300 C375,280 380,270 385,250 C380,270 375,290 370,310 C365,330 355,340 350,350 Z" fill="#2b802b"/>
      <path id="grass9" class="grass" d="M450,420 C455,400 465,390 470,370 C475,350 480,340 485,320 C480,340 475,360 470,380 C465,400 455,410 450,420 Z" fill="#1f5e1f"/>
      <path id="grass10" class="grass" d="M520,460 C525,440 535,430 540,410 C545,390 550,380 555,360 C550,380 545,400 540,420 C535,440 525,450 520,460 Z" fill="#256f25"/>
      <path id="grass11" class="grass" d="M600,400 C605,380 615,370 620,350 C625,330 630,320 635,300 C630,320 625,340 620,360 C615,380 605,390 600,400 Z" fill="#1a5a1a"/>
      <path id="grass12" class="grass" d="M700,500 C705,480 715,470 720,450 C725,430 730,420 735,400 C730,420 725,440 720,460 C715,480 705,490 700,500 Z" fill="#2a7f2a"/>
    </pattern>
  </defs>
  <rect id="main-bg" class="background" x="0" y="0" width="1024" height="1024" fill="url(#pattern-grass)"/>
</svg> 